<?xml version="1.0" encoding="UTF-8" standalone="no"?>
<svg
   xmlns:dc="http://purl.org/dc/elements/1.1/"
   xmlns:cc="http://creativecommons.org/ns#"
   xmlns:rdf="http://www.w3.org/1999/02/22-rdf-syntax-ns#"
   xmlns:svg="http://www.w3.org/2000/svg"
   xmlns="http://www.w3.org/2000/svg"
   xmlns:sodipodi="http://sodipodi.sourceforge.net/DTD/sodipodi-0.dtd"
   xmlns:inkscape="http://www.inkscape.org/namespaces/inkscape"
   viewBox="0 0 1426.425 388.20374"
   height="388.20374"
   width="1426.425"
   xml:space="preserve"
   version="1.1"
   id="svg2"
   inkscape:version="0.91 r13725"
   sodipodi:docname="eps_file.svg"><sodipodi:namedview
     pagecolor="#ffffff"
     bordercolor="#666666"
     borderopacity="1"
     objecttolerance="10"
     gridtolerance="10"
     guidetolerance="10"
     inkscape:pageopacity="0"
     inkscape:pageshadow="2"
     inkscape:window-width="1440"
     inkscape:window-height="856"
     id="namedview97"
     showgrid="false"
     fit-margin-top="10"
     fit-margin-left="10"
     fit-margin-right="10"
     fit-margin-bottom="10"
     inkscape:zoom="0.44083401"
     inkscape:cx="648.18836"
     inkscape:cy="-243.46411"
     inkscape:window-x="0"
     inkscape:window-y="771"
     inkscape:window-maximized="0"
     inkscape:current-layer="svg2" /><metadata
     id="metadata8"><rdf:RDF><cc:Work
         rdf:about=""><dc:format>image/svg+xml</dc:format><dc:type
           rdf:resource="http://purl.org/dc/dcmitype/StillImage" /><dc:title></dc:title></cc:Work></rdf:RDF></metadata><defs
     id="defs6"><clipPath
       id="clipPath80"
       clipPathUnits="userSpaceOnUse"><path
         id="path82"
         d="m 4437.41,2382.64 344.88,0 c 7.66,0 14.13,2.63 19.4,7.9 5.27,5.27 7.91,11.73 7.91,19.41 l 0,151.6 c 0,7.66 -2.64,14.25 -7.91,19.76 -5.27,5.5 -11.74,8.27 -19.4,8.27 l -344.88,0 c -7.68,0 -14.26,-2.77 -19.77,-8.27 -5.51,-5.51 -8.26,-12.1 -8.26,-19.76 l 0,-151.6 c 0,-7.68 2.75,-14.14 8.26,-19.41 5.51,-5.27 12.09,-7.9 19.77,-7.9 z m 431.1,178.91 0,-151.6 c 0,-23.97 -8.38,-44.32 -25.14,-61.08 -16.78,-16.77 -37.13,-25.15 -61.08,-25.15 l -79.03,0 162.38,-192.56 -76.88,0 -161.67,192.56 -189.68,0 c -4.32,0 -13.66,0.95 -28.03,2.88 l 0,-195.44 -58.2,0 0,516.61 431.11,0 c 23.95,0 44.3,-8.38 61.08,-25.15 16.76,-16.76 25.14,-37.13 25.14,-61.07 z"
         inkscape:connector-curvature="0" /></clipPath><linearGradient
       id="linearGradient84"
       spreadMethod="pad"
       gradientTransform="matrix(1e-7,2215.78,2215.78,-1e-7,4609.85,115.18)"
       gradientUnits="userSpaceOnUse"
       y2="0"
       x2="1"
       y1="0"
       x1="0"><stop
         id="stop86"
         offset="0"
         style="stop-opacity:1;stop-color:#286b82" /><stop
         id="stop88"
         offset="0.994624"
         style="stop-opacity:1;stop-color:#4ab0d3" /><stop
         id="stop90"
         offset="1"
         style="stop-opacity:1;stop-color:#4ab0d3" /></linearGradient><clipPath
       id="clipPath112"
       clipPathUnits="userSpaceOnUse"><path
         id="path114"
         d="m 4551.18,1128.93 0,517.34 58.2,0 0,-517.34 -58.2,0 z"
         inkscape:connector-curvature="0" /></clipPath><linearGradient
       id="linearGradient116"
       spreadMethod="pad"
       gradientTransform="matrix(1e-7,2215.78,2215.78,-1e-7,4580.28,115.18)"
       gradientUnits="userSpaceOnUse"
       y2="0"
       x2="1"
       y1="0"
       x1="0"><stop
         id="stop118"
         offset="0"
         style="stop-opacity:1;stop-color:#286b82" /><stop
         id="stop120"
         offset="0.994624"
         style="stop-opacity:1;stop-color:#4ab0d3" /><stop
         id="stop122"
         offset="1"
         style="stop-opacity:1;stop-color:#4ab0d3" /></linearGradient><clipPath
       id="clipPath150"
       clipPathUnits="userSpaceOnUse"><path
         id="path152"
         d="m 4868.51,557.832 0,-20.84 -58.2,0 0,20.84 c 0,7.648 -2.76,14.25 -8.26,19.75 -5.51,5.508 -12.11,8.27 -19.76,8.27 l -344.89,0 c -7.67,0 -14.26,-2.762 -19.76,-8.27 -5.51,-5.5 -8.26,-12.102 -8.26,-19.75 l 0,-344.891 c 0,-7.671 2.75,-14.261 8.26,-19.761 5.5,-5.52 12.09,-8.258 19.76,-8.258 l 344.89,0 c 7.65,0 14.25,2.738 19.76,8.258 5.5,5.5 8.26,12.09 8.26,19.761 l 0,127.899 -127.89,0 0,58.91 186.09,0 0,-186.809 c 0,-23.961 -8.38,-44.312 -25.15,-61.082 -16.77,-16.769 -37.12,-25.148 -61.07,-25.148 l -344.89,0 c -23.96,0 -44.31,8.379 -61.07,25.148 -16.78,16.77 -25.15,37.121 -25.15,61.082 l 0,344.891 c 0,23.938 8.37,44.297 25.15,61.066 16.76,16.762 37.11,25.153 61.07,25.153 l 344.89,0 c 23.95,0 44.3,-8.391 61.07,-25.153 16.77,-16.769 25.15,-37.128 25.15,-61.066 z"
         inkscape:connector-curvature="0" /></clipPath><linearGradient
       id="linearGradient154"
       spreadMethod="pad"
       gradientTransform="matrix(1e-7,2215.78,2215.78,-1e-7,4609.85,115.18)"
       gradientUnits="userSpaceOnUse"
       y2="0"
       x2="1"
       y1="0"
       x1="0"><stop
         id="stop156"
         offset="0"
         style="stop-opacity:1;stop-color:#286b82" /><stop
         id="stop158"
         offset="0.994624"
         style="stop-opacity:1;stop-color:#4ab0d3" /><stop
         id="stop160"
         offset="1"
         style="stop-opacity:1;stop-color:#4ab0d3" /></linearGradient><clipPath
       id="clipPath180"
       clipPathUnits="userSpaceOnUse"><path
         id="path182"
         d="m 3215.68,310.859 c -23.63,14.633 -51.39,23.223 -81.23,23.223 -13.48,0 -26.48,-1.902 -38.95,-5.141 l -190.27,329.571 c 28.19,26.117 45.95,63.359 45.95,104.828 0,14.738 -2.24,28.961 -6.38,42.34 l 801.55,462.78 c 4.8,-4.37 9.82,-8.49 15.17,-12.17 L 3215.68,310.859 Z M 1149.42,1256.26 c 5.37,3.69 10.39,7.81 15.19,12.18 l 1202.4,-694.21 c -1.75,-7.07 -2.96,-14.359 -2.96,-21.98 0,-2.828 0.58,-5.5 0.84,-8.262 L 1900.95,276.129 c -31.9,49.613 -87.46,82.551 -150.82,82.551 -26.17,0 -50.95,-5.739 -73.36,-15.809 l -527.35,913.389 z m 570.09,1223.25 c 9.79,-2.57 20.02,-4.08 30.62,-4.08 10.6,0 20.82,1.51 30.62,4.08 L 2711.06,868.172 c -28.2,-26.133 -45.95,-63.363 -45.95,-104.832 0,-14.738 2.23,-28.961 6.37,-42.34 l -163.29,-94.281 c -14.91,10.59 -33.04,16.953 -52.72,16.953 -19.69,0 -37.81,-6.363 -52.73,-16.953 L 1201.06,1320.51 c 6.73,16.59 10.51,34.67 10.51,53.67 0,48.96 -24.63,92.14 -62.14,117.92 l 570.08,987.41 z M 3012.67,274.582 2546.05,543.98 c 0.25,2.77 0.83,5.442 0.83,8.27 0,7.621 -1.2,14.91 -2.96,21.98 l 159.39,92.02 c 26.12,-28.191 63.36,-45.949 104.83,-45.949 14.74,0 28.96,2.238 42.34,6.379 l 188.19,-325.961 c -9.68,-7.649 -18.4,-16.418 -26,-26.137 z M 1925.4,217.129 2392.09,486.57 c 16.45,-15.871 38.72,-25.73 63.38,-25.73 24.65,0 46.93,9.859 63.38,25.73 l 465.83,-268.949 c -2.74,-10.762 -4.36,-21.941 -4.72,-33.461 l -1050.74,-0.008 c -0.3,11.278 -1.53,22.309 -3.82,32.977 z M 3761.52,1492.08 c -37.49,-25.79 -62.11,-68.95 -62.11,-117.9 0,-18.98 3.78,-37.07 10.5,-53.65 L 2912.97,860.422 c -26.12,28.199 -63.36,45.949 -104.83,45.949 -14.74,0 -28.96,-2.242 -42.34,-6.379 L 1835.64,2511.09 c 14.42,14.54 25.04,32.78 30.58,53.12 l 1118.21,0 c 14.98,-83.92 88.16,-147.68 176.38,-147.68 21.36,0 41.76,3.93 60.76,10.78 l 539.95,-935.23 z m 80.93,25.14 c -7.26,0 -14.33,-0.72 -21.3,-1.76 l -544.7,943.44 c 38.92,32.9 63.7,82.02 63.7,136.97 0,99.04 -80.29,179.34 -179.34,179.34 -88.22,0 -161.4,-63.76 -176.38,-147.68 l -1118.21,0 c -13.92,51.13 -60.55,88.78 -116.09,88.78 -66.52,0 -120.44,-53.92 -120.44,-120.44 0,-33.07 13.35,-63.01 34.93,-84.78 l -574.83,-995.62 c -6.96,1.04 -14.02,1.75 -21.26,1.75 -78.995,0 -143.034,-64.04 -143.034,-143.04 0,-79 64.039,-143.04 143.034,-143.04 7.24,0 14.31,0.72 21.26,1.76 L 1624.32,307.07 C 1591.3,274.539 1570.79,229.352 1570.79,179.34 1570.79,80.2891 1651.08,0 1750.13,0 c 78.53,0 145.1,50.5586 169.38,120.832 l 1071.74,0 c 23.08,-56.4336 78.46,-96.2304 143.2,-96.2304 85.47,0 154.74,69.2773 154.74,154.7384 0,32.031 -9.73,61.781 -26.4,86.469 l 558.35,967.091 c 6.97,-1.04 14.05,-1.76 21.31,-1.76 79,0 143.04,64.04 143.04,143.04 0,79 -64.04,143.04 -143.04,143.04 z"
         inkscape:connector-curvature="0" /></clipPath><linearGradient
       id="linearGradient184"
       spreadMethod="pad"
       gradientTransform="matrix(3059.99,0,0,-3059.99,925.495,1387.6)"
       gradientUnits="userSpaceOnUse"
       y2="0"
       x2="1"
       y1="0"
       x1="0"><stop
         id="stop186"
         offset="0"
         style="stop-opacity:1;stop-color:#286b82" /><stop
         id="stop188"
         offset="0.994624"
         style="stop-opacity:1;stop-color:#4ab0d3" /><stop
         id="stop190"
         offset="1"
         style="stop-opacity:1;stop-color:#4ab0d3" /></linearGradient></defs><g
     transform="matrix(1.25,0,0,-1.25,10,909.04875)"
     id="g10"><g
       transform="scale(0.1,0.1)"
       id="g12"><path
         id="path14"
         style="fill:#3972c1;fill-opacity:1;fill-rule:nonzero;stroke:none"
         d="m 4363.83,6517.79 -92.72,0 c -11.87,10.35 -19.49,25.57 -22.83,45.67 -3.37,20.09 -5.03,40.81 -5.03,62.13 l 0,60.74 c 0,35.92 -10.51,64.86 -31.52,86.78 -21,21.92 -49.17,32.87 -84.49,32.87 l -153.92,0 0,-288.19 -89.97,0 0,664.55 227.44,0 c 72.78,0 128.35,-16.14 166.72,-48.41 38.36,-32.29 57.55,-79.18 57.55,-140.67 0,-34.12 -8.91,-63.81 -26.72,-89.08 -17.82,-25.27 -43.78,-45.37 -77.89,-60.29 36.55,-11.87 62.82,-31.14 78.8,-57.76 15.98,-26.67 23.97,-59.61 23.97,-98.9 l 0,-62.56 c 0,-20.72 2.29,-39.29 6.86,-55.72 4.56,-16.44 12.47,-29.84 23.75,-40.19 l 0,-10.97 m -390.51,594.22 0,-235.22 128.34,0 c 50.85,0 87.47,9.64 109.85,28.99 22.38,19.35 33.57,48.79 33.57,88.38 0,37.47 -10.89,66.46 -32.66,87.01 -21.77,20.54 -55.65,30.84 -101.63,30.84 l -137.47,0"
         inkscape:connector-curvature="0" /><path
         id="path16"
         style="fill:#505256;fill-opacity:1;fill-rule:nonzero;stroke:none"
         d="m 4991.24,6826.1 -273.13,0 0,-237.97 319.7,0 0,-70.34 -409.68,0 0,665 404.66,0 0,-70.78 -314.68,0 0,-215.13 273.13,0 0,-70.78"
         inkscape:connector-curvature="0" /><path
         id="path18"
         style="fill:#505256;fill-opacity:1;fill-rule:nonzero;stroke:none"
         d="m 5413.1,6764.44 198.67,0 -96.81,285.43 -2.75,0 -99.11,-285.43 z m 224.25,-75.36 -250.29,0 -59.37,-171.29 -91.8,0 239.79,665 77.18,0 234.76,-665 -91.8,0 -58.47,171.29"
         inkscape:connector-curvature="0" /><path
         id="path20"
         style="fill:#505256;fill-opacity:1;fill-rule:nonzero;stroke:none"
         d="m 6504.55,6730.62 0.91,-2.73 c 1.21,-62.43 -20.71,-114.64 -65.77,-156.66 -45.07,-42.02 -104.59,-63.03 -178.58,-63.03 -75.22,0 -136.49,26.64 -183.83,79.93 -47.35,53.28 -71.02,120.87 -71.02,202.78 l 0,118.29 c 0,81.91 23.67,149.6 71.02,203.03 47.34,53.44 108.61,80.16 183.83,80.16 75.2,0 135.04,-20.02 179.49,-60.06 44.45,-40.04 66.07,-93.11 64.86,-159.17 l -0.91,-2.75 -86.32,0 c 0,46.59 -13.71,83.44 -41.12,110.53 -27.39,27.1 -66.07,40.64 -116,40.64 -50.25,0 -90.29,-20.24 -120.12,-60.74 -29.84,-40.49 -44.76,-90.72 -44.76,-150.71 l 0,-119.22 c 0,-60.59 14.92,-111.13 44.76,-151.62 29.83,-40.52 69.87,-60.76 120.12,-60.76 49.93,0 88.61,13.47 116,40.44 27.41,26.94 41.12,64.16 41.12,111.65 l 86.32,0"
         inkscape:connector-curvature="0" /><path
         id="path22"
         style="fill:#505256;fill-opacity:1;fill-rule:nonzero;stroke:none"
         d="m 7223.75,7112.01 -219.23,0 0,-594.22 -89.98,0 0,594.22 -216.49,0 0,70.78 525.7,0 0,-70.78"
         inkscape:connector-curvature="0" /><path
         id="path24"
         style="fill:#505256;fill-opacity:1;fill-rule:nonzero;stroke:none"
         d="m 7567.52,6517.79 -90.43,0 0,665 90.43,0 0,-665"
         inkscape:connector-curvature="0" /><path
         id="path26"
         style="fill:#505256;fill-opacity:1;fill-rule:nonzero;stroke:none"
         d="m 8083.95,6692.25 15.07,-55.26 2.73,0 15.08,55.26 171.73,490.54 97.28,0 -247.09,-665 -77.19,0 -247.09,665 97.74,0 171.74,-490.54"
         inkscape:connector-curvature="0" /><path
         id="path28"
         style="fill:#505256;fill-opacity:1;fill-rule:nonzero;stroke:none"
         d="m 8986.31,6826.1 -273.13,0 0,-237.97 319.7,0 0,-70.34 -409.68,0 0,665 404.66,0 0,-70.78 -314.68,0 0,-215.13 273.13,0 0,-70.78"
         inkscape:connector-curvature="0" /><path
         id="path30"
         style="fill:#3972c1;fill-opacity:1;fill-rule:nonzero;stroke:none"
         d="m 4053.35,5395.32 90.418,0 0,665 -90.418,0 0,-665 z"
         inkscape:connector-curvature="0" /><path
         id="path32"
         style="fill:#505256;fill-opacity:1;fill-rule:nonzero;stroke:none"
         d="m 4961.18,5395.32 -89.98,0 -320.17,507.88 -2.73,-0.92 0,-506.96 -89.98,0 0,665 89.98,0 320.16,-507.44 2.74,0.93 0,506.51 89.98,0 0,-665"
         inkscape:connector-curvature="0" /><path
         id="path34"
         style="fill:#505256;fill-opacity:1;fill-rule:nonzero;stroke:none"
         d="m 5718.29,5989.53 -219.23,0 0,-594.21 -89.98,0 0,594.21 -216.49,0 0,70.79 525.7,0 0,-70.79"
         inkscape:connector-curvature="0" /><path
         id="path36"
         style="fill:#505256;fill-opacity:1;fill-rule:nonzero;stroke:none"
         d="m 6325.61,5703.62 -273.12,0 0,-237.97 319.7,0 0,-70.33 -409.68,0 0,665 404.66,0 0,-70.79 -314.68,0 0,-215.12 273.12,0 0,-70.79"
         inkscape:connector-curvature="0" /><path
         id="path38"
         style="fill:#505256;fill-opacity:1;fill-rule:nonzero;stroke:none"
         d="m 6718.25,5754.31 128.33,0 c 50.86,0 87.47,9.65 109.85,28.99 22.39,19.35 33.57,48.79 33.57,88.38 0,37.47 -10.88,66.46 -32.65,87.01 -21.77,20.55 -55.65,30.84 -101.63,30.84 l -137.47,0 0,-235.22 z m 0,-70.81 0,-288.18 -89.98,0 0,664.55 227.45,0 c 72.77,0 128.35,-16.15 166.71,-48.42 38.37,-32.29 57.55,-79.18 57.55,-140.67 0,-34.11 -8.91,-63.81 -26.72,-89.08 -17.82,-25.26 -43.77,-45.36 -77.88,-60.28 36.54,-11.87 62.81,-31.14 78.8,-57.76 15.98,-26.67 23.97,-59.62 23.97,-98.91 l 0,-62.56 c 0,-20.72 2.28,-39.29 6.86,-55.71 4.56,-16.45 12.47,-29.84 23.74,-40.19 l 0,-10.97 -92.72,0 c -11.87,10.34 -19.48,25.57 -22.83,45.66 -3.36,20.1 -5.02,40.82 -5.02,62.14 l 0,60.73 c 0,35.92 -10.51,64.86 -31.52,86.78 -21.01,21.92 -49.18,32.87 -84.49,32.87 l -153.92,0"
         inkscape:connector-curvature="0" /><path
         id="path40"
         style="fill:#505256;fill-opacity:1;fill-rule:nonzero;stroke:none"
         d="m 7492.27,5641.96 198.66,0 -96.81,285.44 -2.75,0 -99.1,-285.44 z m 224.25,-75.36 -250.3,0 -59.37,-171.28 -91.8,0 239.79,665 77.18,0 234.76,-665 -91.8,0 -58.46,171.28"
         inkscape:connector-curvature="0" /><path
         id="path42"
         style="fill:#505256;fill-opacity:1;fill-rule:nonzero;stroke:none"
         d="m 8583.71,5608.14 0.91,-2.72 c 1.21,-62.44 -20.71,-114.65 -65.77,-156.67 -45.07,-42.01 -104.59,-63.03 -178.57,-63.03 -75.22,0 -136.5,26.64 -183.84,79.93 -47.35,53.29 -71.02,120.87 -71.02,202.78 l 0,118.3 c 0,81.91 23.67,149.59 71.02,203.03 47.34,53.44 108.62,80.16 183.84,80.16 75.19,0 135.03,-20.02 179.48,-60.07 44.45,-40.04 66.07,-93.1 64.86,-159.16 l -0.91,-2.75 -86.32,0 c 0,46.59 -13.71,83.43 -41.11,110.53 -27.4,27.09 -66.08,40.64 -116,40.64 -50.25,0 -90.3,-20.25 -120.13,-60.74 -29.84,-40.49 -44.76,-90.73 -44.76,-150.72 l 0,-119.22 c 0,-60.59 14.92,-111.12 44.76,-151.62 29.83,-40.51 69.88,-60.76 120.13,-60.76 49.92,0 88.6,13.47 116,40.44 27.4,26.95 41.11,64.16 41.11,111.65 l 86.32,0"
         inkscape:connector-curvature="0" /><path
         id="path44"
         style="fill:#505256;fill-opacity:1;fill-rule:nonzero;stroke:none"
         d="m 9302.91,5989.53 -219.22,0 0,-594.21 -89.98,0 0,594.21 -216.49,0 0,70.79 525.69,0 0,-70.79"
         inkscape:connector-curvature="0" /><path
         id="path46"
         style="fill:#505256;fill-opacity:1;fill-rule:nonzero;stroke:none"
         d="m 9646.68,5395.32 -90.43,0 0,665 90.43,0 0,-665"
         inkscape:connector-curvature="0" /><path
         id="path48"
         style="fill:#505256;fill-opacity:1;fill-rule:nonzero;stroke:none"
         d="m 10379.1,5787.65 c 0,60.89 -16.4,110.83 -49.3,149.8 -32.9,38.99 -77,58.46 -132.4,58.46 -52.4,0 -94.2,-19.47 -125.4,-58.46 -31.2,-38.97 -46.8,-88.91 -46.8,-149.8 l 0,-119.22 c 0,-61.49 15.6,-111.75 46.8,-150.72 31.2,-38.96 73,-58.46 125.4,-58.46 55.7,0 99.9,19.42 132.6,58.24 32.8,38.82 49.1,89.13 49.1,150.94 l 0,119.22 z m 90,-119.22 c 0,-81.28 -25.2,-148.74 -75.6,-202.33 -50.4,-53.59 -115.8,-80.38 -196.1,-80.38 -77.7,0 -140.8,26.79 -189.4,80.38 -48.54,53.59 -72.8,121.05 -72.8,202.33 l 0,118.3 c 0,81.01 24.26,148.44 72.8,202.33 48.6,53.91 111.7,80.86 189.4,80.86 80.3,0 145.7,-26.9 196.1,-80.61 50.4,-53.76 75.6,-121.27 75.6,-202.58 l 0,-118.3"
         inkscape:connector-curvature="0" /><path
         id="path50"
         style="fill:#505256;fill-opacity:1;fill-rule:nonzero;stroke:none"
         d="m 11251.4,5395.32 -90,0 -320.2,507.88 -2.7,-0.92 0,-506.96 -90,0 0,665 90,0 320.1,-507.44 2.8,0.93 0,506.51 90,0 0,-665"
         inkscape:connector-curvature="0" /><path
         id="path52"
         style="fill:#3972c1;fill-opacity:1;fill-rule:nonzero;stroke:none"
         d="m 4149.16,4263.27 c -76.73,0 -140.22,25.42 -190.46,76.28 -50.24,50.84 -75.35,116.63 -75.35,197.31 l 0,137.02 c 0,80.68 24.2,146.44 72.62,197.3 48.41,50.84 110.82,76.29 187.26,76.29 73.99,0 132.45,-19.72 175.38,-59.17 42.94,-39.41 63.79,-89.58 62.57,-150.49 l -0.91,-2.72 -86.32,0 c 0,40.49 -13.09,74.21 -39.28,101.15 -26.19,26.95 -63.33,40.42 -111.44,40.42 -50.86,0 -91.81,-19.02 -122.86,-57.09 -31.06,-38.07 -46.59,-86.31 -46.59,-144.77 l 0,-137.94 c 0,-59.09 16.44,-107.73 49.32,-145.92 32.89,-38.22 74.91,-57.34 126.06,-57.34 39.28,0 70.41,5.1 93.41,15.33 22.98,10.19 40.11,22.29 51.38,36.29 l 0,149.81 -150.72,0 0,70.34 240.69,0 0,-242.97 c -15.83,-24.67 -43.31,-47.37 -82.43,-68.06 -39.13,-20.72 -89.9,-31.07 -152.33,-31.07"
         inkscape:connector-curvature="0" /><path
         id="path54"
         style="fill:#505256;fill-opacity:1;fill-rule:nonzero;stroke:none"
         d="m 4808.09,4519.51 198.67,0 -96.82,285.44 -2.75,0 -99.1,-285.44 z m 224.25,-75.36 -250.3,0 -59.37,-171.28 -91.79,0 239.78,665 77.19,0 234.76,-665 -91.81,0 -58.46,171.28"
         inkscape:connector-curvature="0" /><path
         id="path56"
         style="fill:#505256;fill-opacity:1;fill-rule:nonzero;stroke:none"
         d="m 5836.03,4867.08 -219.22,0 0,-594.21 -89.98,0 0,594.21 -216.49,0 0,70.79 525.69,0 0,-70.79"
         inkscape:connector-curvature="0" /><path
         id="path58"
         style="fill:#505256;fill-opacity:1;fill-rule:nonzero;stroke:none"
         d="m 6443.35,4581.17 -273.13,0 0,-237.97 319.71,0 0,-70.33 -409.69,0 0,665 404.66,0 0,-70.79 -314.68,0 0,-215.12 273.13,0 0,-70.79"
         inkscape:connector-curvature="0" /><path
         id="path60"
         style="fill:#505256;fill-opacity:1;fill-rule:nonzero;stroke:none"
         d="m 6879.39,4503.52 11.41,-87.24 2.75,-0.45 15.52,87.69 117.84,434.35 88.15,0 118.75,-434.35 15.52,-89.06 2.75,0 12.32,89.06 95.01,434.35 97.74,0 -160.77,-665 -80.38,0 -132.92,461.29 -10.05,59.84 -2.73,0 -9.59,-59.84 -134.74,-461.29 -80.39,0 -160.31,665 97.29,0 96.83,-434.35"
         inkscape:connector-curvature="0" /><path
         id="path62"
         style="fill:#505256;fill-opacity:1;fill-rule:nonzero;stroke:none"
         d="m 7800.47,4519.51 198.67,0 -96.82,285.44 -2.75,0 -99.1,-285.44 z m 224.25,-75.36 -250.29,0 -59.38,-171.28 -91.79,0 239.78,665 77.19,0 234.76,-665 -91.81,0 -58.46,171.28"
         inkscape:connector-curvature="0" /><path
         id="path64"
         style="fill:#505256;fill-opacity:1;fill-rule:nonzero;stroke:none"
         d="m 8596.41,4599.89 173.54,337.98 102.77,0 -233.39,-431.16 0,-233.84 -89.51,0 0,240.69 -229.74,424.31 102.76,0 173.57,-337.98"
         inkscape:connector-curvature="0" /><path
         id="path66"
         style="fill:#3972c1;fill-opacity:1;fill-rule:nonzero;stroke:none"
         d="m 1426.99,4246.76 c -229.88,0 -416.25,186.36 -416.25,416.25 0,57.54 11.32,112.51 32.8,162.2 19.6,45.33 27.02,61.21 111.14,163.32 77.68,95.01 164.08,284.86 163.74,507.58 0.34,222.71 -86.06,412.56 -163.74,507.57 -84.12,102.1 -91.54,117.99 -111.14,163.32 -21.48,49.69 -32.8,104.66 -32.8,162.2 0,1.22 0.01,2.44 0.02,3.66 1.29,-153.33 87.58,-300.14 234.94,-371.48 51.79,-25.08 106.21,-38.45 160.28,-41.16 l -0.01,-0.01 0.02,0.01 c 3.78,-0.19 7.56,-0.29 11.33,-0.29 56.37,0 111.45,20.42 175.18,34.9 22.47,5.11 46.24,9.26 71.06,12.28 -78.99,-117.78 -141.31,-283.93 -138.87,-471 -2.78,-213.59 78.84,-399.91 173.32,-518.11 43.53,-54.45 88.85,-97.11 112.43,-152.77 l 0.01,-0.02 0,0 c 21.11,-49.85 32.79,-104.66 32.79,-162.2 0,-229.89 -186.36,-416.25 -416.25,-416.25"
         inkscape:connector-curvature="0" /><path
         id="path68"
         style="fill:#3972c1;fill-opacity:1;fill-rule:nonzero;stroke:none"
         d="m 2926.45,5193.59 c -60.84,0 -122.66,13.41 -181.1,41.7 -51.79,25.08 -96.03,59.48 -131.69,100.2 l -0.01,0 -0.01,0.02 c -39.82,45.47 -58.47,104.86 -88.51,167.77 -65.21,136.54 -197.33,291.2 -390.78,381.77 -125.94,63.01 -257.18,87.84 -374.28,87.84 -33.48,0 -65.8,-2.03 -96.51,-5.78 11.19,16.7 22.72,32.42 34.45,47.09 43.53,54.46 88.85,97.12 112.43,152.78 l 0.01,0.02 0,0 c 21.11,49.84 32.79,104.66 32.79,162.2 0,229.89 -186.36,416.25 -416.25,416.25 -228.66,0 -414.27,-184.39 -416.23,-412.59 -0.52,61.97 12.85,125 41.68,184.56 71.89,148.47 220.36,234.95 374.95,234.95 60.84,0 122.66,-13.41 181.09,-41.69 51.79,-25.08 96.34,-59.22 131.7,-100.21 32.26,-37.4 43.32,-50.99 98.57,-171.2 51.66,-111.32 184.88,-271.82 385.48,-368.57 134.21,-65.23 272.09,-88.99 384.39,-88.99 55.31,0.01 104.42,5.77 143.81,15.18 101.38,24.62 133.71,29.67 167.04,29.67 8.94,0 17.96,-0.37 28.39,-0.81 54.08,-2.32 108.49,-16.09 160.28,-41.17 206.91,-100.18 293.43,-349.13 193.25,-556.04 -71.88,-148.48 -220.35,-234.95 -374.94,-234.95"
         inkscape:connector-curvature="0" /><path
         id="path70"
         style="fill:#293c88;fill-opacity:1;fill-rule:nonzero;stroke:none"
         d="m 1417.32,5919.93 c -3.77,0 -7.55,0.1 -11.33,0.29 l -0.02,-0.01 0.01,0.01 c -54.07,2.71 -108.49,16.08 -160.28,41.16 -147.36,71.34 -233.65,218.15 -234.94,371.48 1.96,228.2 187.57,412.59 416.23,412.59 229.89,0 416.25,-186.36 416.25,-416.25 0,-57.54 -11.68,-112.36 -32.79,-162.2 l 0,0 -0.01,-0.02 c -23.58,-55.66 -68.9,-98.32 -112.43,-152.78 -11.73,-14.67 -23.26,-30.39 -34.45,-47.09 -24.82,-3.02 -48.59,-7.17 -71.06,-12.28 -63.73,-14.48 -118.81,-34.9 -175.18,-34.9"
         inkscape:connector-curvature="0" /><path
         id="path72"
         style="fill:#3972c1;fill-opacity:1;fill-rule:nonzero;stroke:none"
         d="M 424.176,5071.93 C 189.91,5071.93 0,5261.84 0,5496.1 c 0,234.27 189.91,424.18 424.176,424.18 234.265,0 424.172,-189.91 424.172,-424.18 0,-234.26 -189.907,-424.17 -424.172,-424.17"
         inkscape:connector-curvature="0" /><path
         id="path74"
         style="fill:#3972c1;fill-opacity:1;fill-rule:nonzero;stroke:none"
         d="m 2643.7,6321.27 c -234.27,0 -424.18,189.91 -424.18,424.18 0,234.26 189.91,424.17 424.18,424.17 234.26,0 424.17,-189.91 424.17,-424.17 0,-234.27 -189.91,-424.18 -424.17,-424.18"
         inkscape:connector-curvature="0" /><g
         id="g76"><g
           clip-path="url(#clipPath80)"
           id="g78" /></g><g
         id="g108"><g
           clip-path="url(#clipPath112)"
           id="g110" /></g><g
         id="g146"><g
           clip-path="url(#clipPath150)"
           id="g148" /></g><g
         id="g176"><g
           clip-path="url(#clipPath180)"
           id="g178" /></g></g></g></svg>